<svg xmlns="http://www.w3.org/2000/svg" viewBox="0 0 1500 1500" width="1500" height="1500"><path fill="#FFF" d="M0 0h1500v1500H0z"/><g transform="translate(219.0 173.0) rotate(0.0 466.5 500.5) scale(0.9990908594430148 0.9992662730163167)"><svg width="933.849" height="1001.735" viewBox="0 0 933.849 1001.735"><path d="M267.83 875.387c-10.572-28.605-18.396-59.431-27.246-89.539-24.684-83.98-84.419-128.018-140.963-190.242-88.464-97.352-136.845-250.643-64.589-370.915 41.003-68.25 117.783-119.16 198.773-115.17 34.427 1.696 68.194 12.453 102.646 11.357 81.525-2.594 145.371-68.61 220.6-100.133 68.966-28.899 150-27.536 217.955 3.666 67.955 31.203 121.803 91.773 144.833 162.914 22.861 70.618 15.706 148.25-6.767 218.992-30.341 95.506-86.676 183.451-136.785 269.69-30.885 53.153-63.048 105.592-97.459 156.544-34.026 50.382-65.888 99.881-116.791 134.249-49.853 33.66-120.33 43.359-178.03 27.519-65.998-18.118-96.06-64.506-116.175-118.933z" fill="#03045E"/></svg></g><g transform="translate(316.0 253.0) rotate(0.0 174.5 181.5) scale(0.9981895301644869 0.9992705050032346)"><svg width="349.633" height="363.265" viewBox="0 0 349.633 363.265"><path d="M347.632 121.513 209.629 361.265 2 241.752 140.002 2z" fill="#fff"/><g fill="#1a1a1a"><path d="M209.628 363.265c-.338 0-.681-.086-.996-.267L1.002 243.486a2 2 0 0 1-.735-2.732L138.269 1.002A1.999 1.999 0 0 1 141 .267L348.63 119.78a2 2 0 0 1 .735 2.732L211.363 362.264a1.998 1.998 0 0 1-1.735 1.002zM4.731 241.017l204.164 117.517 136.007-236.286L140.738 4.732z"/><path d="m314.463 130.447-95.277 165.527-165.527-95.277 15.583-27.069L148.936 35.17l129.161 74.342z"/><path d="M219.184 297.974c-.338 0-.681-.086-.996-.267L52.661 202.431a2 2 0 0 1-.735-2.732l95.277-165.527a2 2 0 0 1 2.731-.735l165.527 95.277a2 2 0 0 1 .736 2.731L220.92 296.971a1.998 1.998 0 0 1-1.735 1.002zM56.39 199.962l162.06 93.28 93.282-162.06-162.06-93.28z"/></g><path d="M278.097 109.512c-5.075.881-9.817 2.115-14.103 4.002-26.194 11.571-18.154 32.855-19.255 39.044-2.152 12.146-18.633 16.533-29.968 11.669-21.018-9.038-34.087-43.948-59.797-38.922-21.022 4.109-25.415 34.249-44.166 44.606-12.44 6.873-27.443 3.399-41.565 3.719l79.693-138.46 129.161 74.341z" fill="#03045E"/><path d="M90.214 176.226c-3.192 0-6.397-.156-9.57-.311-3.754-.184-7.637-.368-11.356-.288-.716.046-1.397-.357-1.765-.979a2 2 0 0 1-.013-2.019l79.693-138.457a2 2 0 0 1 2.731-.735l129.161 74.341a2 2 0 0 1-.655 3.704c-5.408.939-9.869 2.203-13.64 3.862-19.837 8.763-18.774 23.286-18.139 31.964.17 2.322.304 4.156.048 5.6-.907 5.119-4.201 9.448-9.275 12.188-6.916 3.734-16.122 4.116-23.451.969-8.612-3.703-15.892-11.493-22.931-19.027-10.868-11.631-21.138-22.614-35.694-19.77-10.765 2.104-16.962 11.772-23.523 22.009-5.514 8.604-11.216 17.5-20.06 22.385-6.72 3.713-14.103 4.564-21.56 4.565zm-17.507-4.608c2.724.039 5.459.172 8.132.303 10.49.509 20.399.992 29.002-3.762 7.958-4.395 13.382-12.857 18.627-21.041 6.726-10.493 13.681-21.345 26.123-23.776 16.738-3.261 28.25 9.051 39.384 20.965 6.759 7.232 13.747 14.711 21.587 18.083 6.153 2.639 14.18 2.313 19.972-.813 2.813-1.52 6.353-4.377 7.237-9.367.169-.951.045-2.646-.099-4.608-.666-9.091-1.905-26.013 20.514-35.916 2.766-1.218 5.852-2.233 9.341-3.071L149.672 37.902z" fill="#1a1a1a"/></svg></g><g transform="translate(291.0 698.0) rotate(0.0 440.5 336.5) scale(0.9954228626372943 0.9953913233823782)"><svg width="885.051" height="676.116" viewBox="0 0 885.051 676.116"><path d="M833.383 674.116H33.703C16.194 674.116 2 659.922 2 642.413V38.454C2 18.321 18.321 2 38.454 2h196.535a36.456 36.456 0 0 1 31.727 18.501l32.977 58.277h546.904c20.133 0 36.454 16.321 36.454 36.454v509.217c0 27.431-22.237 49.668-49.668 49.668z" fill="#03045E"/><path d="M833.383 676.117H33.703C15.119 676.117 0 660.997 0 642.413V38.454C0 17.25 17.25 0 38.454 0h196.535c13.831 0 26.655 7.478 33.467 19.515l32.403 57.263h545.738c21.204 0 38.454 17.25 38.454 38.454v509.216c0 28.49-23.178 51.669-51.668 51.669zM38.454 4C19.456 4 4 19.456 4 38.454v603.959c0 16.378 13.325 29.703 29.703 29.703h799.68c26.284 0 47.668-21.384 47.668-47.669V115.232c0-18.998-15.456-34.454-34.454-34.454H299.693a2 2 0 0 1-1.741-1.015l-32.977-58.277c-6.103-10.785-17.593-17.485-29.986-17.485H38.454z" fill="#1a1a1a"/></svg></g><g transform="translate(652.0 235.0) rotate(0.0 372.0 470.0) scale(0.9998105197805255 0.9994534903255029)"><svg width="744.141" height="940.514" viewBox="0 0 744.141 940.514"><path d="m41.112 216.037 405.815 28.648-39.105 553.95L2.006 769.986z" fill="#fff"/><path d="M407.816 800.637c-.047 0-.095-.002-.143-.005L1.859 771.982a2.001 2.001 0 0 1-1.854-2.136l39.109-553.949a2 2 0 0 1 2.136-1.854l405.815 28.65a2.001 2.001 0 0 1 1.854 2.136l-39.11 553.949a2 2 0 0 1-1.993 1.859zM4.136 768.133l401.824 28.369 38.828-549.959-401.824-28.369z" fill="#1a1a1a"/><path d="m2 769.987 157.806-545.073 53.143 2.83z" fill="#1a1a1a"/><path d="M2 771.987a2.001 2.001 0 0 1-1.921-2.556l157.806-545.074a2 2 0 0 1 2.028-1.44l53.143 2.83a2 2 0 0 1 1.758 2.723L3.864 770.713A2 2 0 0 1 2 771.987zm159.285-544.991L16.383 727.5l193.7-497.906-48.797-2.599z" fill="#1a1a1a"/><path d="M742.141 242.215 589.87 703.102 512.094 938.51 1.995 769.984 232.041 73.69l255.886 84.542z" fill="#fff"/><path d="m742.141 242.215-152.27 460.887-22.998-37.762c-9.467-15.547-19.31-32.809-16.533-50.789 4.321-28.091 37.677-46.253 38.33-74.666.579-24.918-24.853-49.277-13.563-71.493 4.235-8.341 12.705-13.499 19.407-20.017 6.69-6.519 11.923-16.769 7.484-24.993-4.514-8.374-15.975-9.532-23.642-15.171-11.804-8.685-12.266-27.212-4.706-39.767 7.559-12.555 20.865-20.36 33.945-26.965 13.081-6.615 26.858-12.812 36.798-23.566 7.108-7.687 11.73-20.039 5.361-28.348-6.841-8.92-20.618-6.755-31.437-3.699-27.48 7.751-54.96 15.504-82.45 23.266-8.352 2.359-16.94 4.739-25.603 3.989-8.653-.751-17.53-5.307-20.918-13.316-4.031-9.51.88-20.758 8.32-27.931 7.452-7.173 17.079-11.536 25.668-17.305 14.152-9.499 26.097-24.456 26.311-41.493.515-40.304-38.47-38.481-61.715-54.842l254.213 83.983z" fill="#03045E"/><path d="M512.097 940.514c-.208 0-.42-.033-.628-.102L1.373 771.886a2 2 0 0 1-1.272-2.526L230.146 73.061a2.005 2.005 0 0 1 2.527-1.271l510.096 168.527a2 2 0 0 1 1.271 2.526L513.995 939.141a2.001 2.001 0 0 1-1.898 1.373zM4.526 768.716l506.299 167.271 228.79-692.499L233.316 76.216z" fill="#1a1a1a"/><path d="M280.683 131.727 448.281 187.1 392.91 354.698l-167.6-55.373z" fill="#03045E"/><path d="M392.911 356.696c-.211 0-.423-.033-.627-.101l-167.598-55.372a2 2 0 0 1-1.271-2.526l55.371-167.598a2.001 2.001 0 0 1 2.527-1.272l167.598 55.371a2 2 0 0 1 1.272 2.526l-55.371 167.599a2 2 0 0 1-1.899 1.373zm-165.072-58.644 163.8 54.117 54.117-163.801-163.8-54.116z" fill="#1a1a1a"/><path d="M328.127 220.264c-6.858 6.73-13.819 13.974-23.292 20.368" fill="#fff"/><path d="M304.838 242.632a2 2 0 0 1-1.12-3.658c8.271-5.582 14.601-11.836 20.723-17.884.766-.756 1.527-1.508 2.286-2.254a1.999 1.999 0 1 1 2.801 2.855c-.757.742-1.515 1.491-2.277 2.244-6.252 6.177-12.717 12.563-21.296 18.354a1.994 1.994 0 0 1-1.117.342z" fill="#1a1a1a"/><path d="M304.84 240.63a70.119 70.119 0 0 1-9.253-9.692c-17.155-21.797-18.613-50.875-14.099-80.049 4.953-32.005 19.428-55.743 35.232-78.301.868-1.233 1.737-2.466 2.605-3.688 3.656-5.157 4.696-6.144 7.355-6.251 2.648-.107 8.106 1.169 12.137-.665 7.527-3.41 21.722-.665 15.997-7.13-4.921-5.554-15.128 1.522-18.913-6.369-1.158-2.412 16.533-18.549 19.288-22.269 4.01-5.436.793-7.237-5.843-2.059-5.372 4.214-13.027 10.143-16.083 10.443-3.045.311 6.358-16.244 8.041-21.09 2.316-6.605-1.458-9.564-5.94-1.576-3.238 5.758-9.682 19.835-13.134 19.353-3.442-.482 2.209-20.361 2.487-24.113.397-5.275-3.753-8.374-6.165.054-1.833 6.39-3.002 22.14-5.811 22.419-4.567.461-3.935-10.507-4.771-17.187-.944-7.57-6.251-6.787-6.122.633.204 11.751-1.64 22.13-2.402 25.925-.311 1.533.086 4.428.686 7.355 1.061 5.286-1.254 10.668-5.768 13.606-28.155 18.313-118.701 90.728-69.048 239.342 41.718 13.788 152.067 51.014 152.067 51.014 4.75-24.853-7.773-55.678-28.456-76.168-4.675-4.632-9.757-8.728-15.161-12.116 12.126-15.665 40.861-54.37 45.46-61.865a52.313 52.313 0 0 0 2.101-3.785c3.57-6.991 6.133-15.525 5.886-22.923-.375-11.697-22.644-23.684-41.944-11.612-9.993 6.251-19.46 14.421-23.545 25.475-4.096 11.054-1.437 25.185 8.438 31.629l-25.325 21.658z" fill="#03045E"/><path d="M377.384 352.335c-.215 0-.431-.035-.639-.104-1.103-.373-110.82-37.382-152.055-51.01a2 2 0 0 1-1.269-1.266C173.45 150.388 264.255 77.178 293.275 58.302c3.876-2.522 5.799-7.05 4.898-11.535-.79-3.854-1.015-6.521-.685-8.146.775-3.866 2.56-14.1 2.362-25.494-.092-5.277 2.246-7.808 4.604-7.975 2.112-.146 4.823 1.609 5.502 7.062.197 1.575.311 3.313.432 5.151.234 3.565.585 8.919 1.825 10.159.965-1.802 1.983-7.909 2.612-11.681.587-3.522 1.142-6.851 1.807-9.167 1.833-6.404 4.701-6.899 6.247-6.621 2.505.448 4.118 3.505 3.835 7.27-.088 1.182-.583 3.483-1.211 6.397-.804 3.734-2.553 11.856-2.403 15.038 2.312-2.192 6.375-9.962 8.233-13.517.839-1.604 1.631-3.119 2.289-4.289 3.708-6.609 6.878-6.072 8.07-5.534 2.396 1.083 2.985 4.518 1.5 8.753-.582 1.673-1.918 4.433-3.465 7.628-1.412 2.916-3.528 7.285-4.519 9.973 3.742-2.003 10.157-7.035 12.903-9.189 4.491-3.505 8.001-4.421 9.888-2.586.926.901 2.002 3.063-1.201 7.405-1.014 1.368-3.548 3.94-6.757 7.198-3.897 3.955-10.994 11.158-12.094 13.48 1.452 2.505 3.862 2.562 7.847 2.438 3.583-.114 7.642-.237 10.516 3.007.61.688 2.463 2.781 1.612 4.984-.982 2.538-4.329 2.902-8.962 3.405-3.175.345-6.773.735-9.318 1.889-3.378 1.537-7.407 1.211-10.349.972-.986-.081-1.916-.152-2.532-.131-1.608.065-2.178.293-5.805 5.409-.868 1.222-1.735 2.453-2.602 3.684-14.221 20.3-29.822 44.704-34.89 77.455-5.317 34.362-.837 60.042 13.694 78.506a67.829 67.829 0 0 0 7.707 8.276l22.09-18.892c-9.513-7.908-10.887-22.228-7.104-32.438 3.635-9.835 11.603-18.496 24.36-26.475 12.426-7.774 25.585-5.889 33.758-1.53 6.76 3.604 11.069 9.265 11.245 14.772.238 7.126-1.987 15.837-6.104 23.897a54.956 54.956 0 0 1-2.177 3.92c-4.399 7.166-31.036 43.142-44.254 60.319 4.762 3.168 9.348 6.927 13.656 11.195 22.084 21.878 33.743 53.209 29.012 77.963a2.001 2.001 0 0 1-1.964 1.625zm-150.486-54.598c38.607 12.771 133.182 44.652 148.901 49.952 3.29-22.835-8.105-52.115-28.278-72.101-4.655-4.612-9.64-8.597-14.816-11.843a2.001 2.001 0 0 1-.519-2.919c12.62-16.302 40.842-54.361 45.337-61.686a50.471 50.471 0 0 0 2.02-3.64c3.823-7.484 5.889-15.483 5.674-21.956-.131-4.084-3.629-8.441-9.13-11.374-7.185-3.829-18.775-5.478-29.754 1.392-11.978 7.492-19.413 15.497-22.73 24.473-3.51 9.474-2.02 22.947 7.655 29.261a2 2 0 0 1 .207 3.194l-25.325 21.658a2 2 0 0 1-2.611-.009 72.367 72.367 0 0 1-9.516-9.97c-15.253-19.381-19.997-46.069-14.501-81.588 5.2-33.601 21.087-58.47 35.57-79.143.873-1.24 1.743-2.476 2.613-3.7 3.712-5.235 5.222-6.941 8.905-7.09.858-.037 1.859.047 3.017.14 2.645.216 5.936.48 8.372-.627 3.131-1.418 7.067-1.846 10.54-2.223 1.802-.195 4.407-.479 5.45-.897a6.216 6.216 0 0 0-.662-.863c-1.63-1.841-4.304-1.762-7.398-1.661-4.103.127-9.206.285-11.821-5.169-1.145-2.385 1.058-5.338 13.095-17.556 2.852-2.895 5.545-5.629 6.389-6.769.541-.733.878-1.318 1.082-1.753-.836.298-2.202.99-4.087 2.462-8.466 6.641-13.983 10.548-17.117 10.856a2.45 2.45 0 0 1-2.304-1.024c-1.314-1.878-.121-4.992 4.972-15.509 1.431-2.954 2.782-5.745 3.289-7.203.645-1.84.644-2.999.547-3.561-.553.366-1.59 1.368-2.853 3.619-.629 1.119-1.408 2.607-2.232 4.184-5.451 10.423-9.036 16.729-12.923 16.171-.795-.111-1.498-.552-1.978-1.239-1.64-2.348-.827-7.805 1.616-19.149.548-2.543 1.065-4.945 1.132-5.854.115-1.521-.257-2.501-.519-2.896-.328.313-1.034 1.224-1.729 3.649-.602 2.097-1.138 5.315-1.706 8.723-1.667 9.997-2.611 14.816-5.831 15.136a4.233 4.233 0 0 1-3.238-.993c-2.595-2.195-2.94-7.452-3.305-13.018-.117-1.778-.227-3.458-.41-4.918-.286-2.292-.955-3.241-1.259-3.505-.293.305-.922 1.403-.879 3.854.204 11.784-1.639 22.355-2.44 26.354-.099.49-.23 2.102.684 6.561 1.227 6.108-1.379 12.262-6.637 15.684-28.352 18.44-116.927 89.871-68.558 236.082z" fill="#1a1a1a"/><path d="M373.693 208.281c18.597-.537 9.677-23.443-3.051-8.557" fill="#03045E"/><path d="M373.692 210.281a1.999 1.999 0 0 1-.057-3.999c4.738-.137 7.947-1.946 8.583-4.84.403-1.83-.363-3.687-1.822-4.412-2.116-1.054-5.195.438-8.235 3.993a2 2 0 0 1-3.04-2.599c6.211-7.266 11.2-5.9 13.058-4.975 3.078 1.532 4.737 5.256 3.945 8.854-.396 1.799-2.458 7.691-12.375 7.978h-.059z" fill="#1a1a1a"/><path d="M331.148 191.131c2.175 4.812 7.995 7.654 13.127 6.41" fill="#fff"/><g fill="#1a1a1a"><path d="M341.79 199.834c-5.182 0-10.302-3.098-12.464-7.878a2 2 0 0 1 3.644-1.648c1.779 3.935 6.638 6.309 10.834 5.29a2 2 0 1 1 .943 3.887c-.974.236-1.967.35-2.957.35zm54.03-52.006c11.33 1.56 22.066 9.639 24.724 20.762.982 4.11.896 8.507 2.609 12.37 3.399 7.667 13.347 12.158 13.722 20.536.202 4.507-2.619 8.716-2.537 13.227.106 5.813 4.82 10.317 8.799 14.556 6.177 6.58 11.374 14.267 13.969 22.911s2.407 18.319-1.657 26.378-12.29 14.178-21.304 14.615-18.27-5.487-20.653-14.192c-1.386-5.061-.513-10.444-.995-15.67-.725-7.846-4.667-15.346-10.718-20.392-4.313-3.596-9.753-6.123-12.695-10.906-3.241-5.268-2.636-12.074-.726-17.957s4.992-11.363 6.527-17.355 1.227-12.985-2.948-17.549c-2.76-3.017-6.773-4.521-10.683-5.719s-7.977-2.241-11.294-4.633c-2.847-2.054-5.885-6.306-5.363-10.039.54-3.858 5.015-5.618 8.127-7.043 7.18-3.288 15.21-4.985 23.094-3.9z"/><path d="M433.211 295.206c-9.812 0-19.194-6.725-21.648-15.687-.938-3.427-.921-6.914-.905-10.286.01-1.987.019-3.864-.153-5.729-.68-7.363-4.328-14.303-10.008-19.039-1.301-1.085-2.704-2.063-4.189-3.1-3.294-2.298-6.701-4.675-8.928-8.296-3.946-6.415-2.681-14.211-.924-19.622.852-2.625 1.931-5.173 2.974-7.638 1.38-3.26 2.684-6.339 3.518-9.596 1.627-6.353.698-12.223-2.486-15.703-2.275-2.485-5.56-3.858-9.793-5.156l-1.331-.402c-3.606-1.084-7.336-2.205-10.547-4.521-3.54-2.554-6.798-7.475-6.173-11.938.656-4.689 5.269-6.772 8.637-8.294l.639-.29c8.122-3.719 16.49-5.12 24.199-4.063 12.83 1.768 23.684 10.929 26.396 22.279.387 1.622.615 3.263.835 4.851.357 2.573.694 5.004 1.656 7.174 1.28 2.888 3.644 5.324 6.146 7.904 3.684 3.799 7.494 7.728 7.746 13.352.118 2.644-.627 5.07-1.349 7.417-.628 2.042-1.221 3.972-1.186 5.864.083 4.593 3.767 8.48 7.329 12.24l.928.982c7.131 7.598 11.985 15.573 14.427 23.705 2.907 9.685 2.256 19.837-1.787 27.854-4.584 9.09-13.609 15.257-22.993 15.713-.344.017-.688.024-1.031.024zm-42.213-145.703c-5.655 0-11.6 1.37-17.439 4.044l-.657.298c-2.66 1.202-5.971 2.698-6.322 5.204-.381 2.724 2.066 6.346 4.552 8.139 2.667 1.924 5.917 2.9 9.358 3.935l1.351.409c4.205 1.288 8.517 2.941 11.573 6.28 4.159 4.547 5.402 11.616 3.41 19.396-.909 3.548-2.333 6.911-3.709 10.163-1.01 2.386-2.055 4.853-2.853 7.313-1.225 3.773-2.785 10.908.527 16.292 1.792 2.912 4.715 4.952 7.81 7.11 1.489 1.039 3.029 2.113 4.462 3.309 6.486 5.409 10.652 13.334 11.429 21.744.19 2.057.18 4.12.17 6.115-.016 3.246-.031 6.312.762 9.21 2.065 7.54 10.246 13.14 18.627 12.723 7.97-.387 15.669-5.692 19.615-13.518 3.587-7.112 4.143-16.188 1.527-24.902-2.262-7.534-6.808-14.976-13.512-22.117l-.916-.97c-3.897-4.112-8.313-8.774-8.425-14.919-.046-2.53.67-4.859 1.362-7.112.65-2.114 1.264-4.11 1.176-6.062-.184-4.108-3.311-7.333-6.621-10.746-2.636-2.719-5.362-5.529-6.931-9.068-1.19-2.685-1.582-5.512-1.961-8.245-.217-1.563-.421-3.037-.764-4.471-2.338-9.784-11.818-17.698-23.052-19.246a33.36 33.36 0 0 0-4.55-.307z"/><path d="M381.329 196.402c-3.731-.944-7.902-1.083-10.689 3.324-4.235 6.701-10.057 9.445-11.376 4.675-1.319-4.771 14.517-15.45 10.904-19.878-4.536-5.543-8.288-14.303-3.002-22.891-5.103 3.206-18.291 2.649-21.894.236 19.299-12.073 41.568-.086 41.944 11.611.247 7.398-2.316 15.933-5.887 22.924z"/><path d="M361.976 208.8c-.243 0-.481-.017-.715-.051-1.902-.282-3.333-1.673-3.925-3.814-.897-3.245 2.283-6.857 5.965-11.041 2.01-2.284 6.192-7.035 5.318-8.106-2.757-3.37-8.124-11.47-5.242-20.676-6.58 1.41-15.834.683-19.218-1.581a1.997 1.997 0 0 1 .052-3.357c12.426-7.774 25.586-5.889 33.758-1.53 6.76 3.604 11.069 9.265 11.245 14.772.238 7.126-1.988 15.837-6.104 23.897a2.001 2.001 0 0 1-2.271 1.029c-4.259-1.08-6.725-.367-8.509 2.454-3.133 4.957-7.112 8.004-10.354 8.004zm5.189-49.168a2 2 0 0 1 1.703 3.049c-5.421 8.806.185 17.322 2.847 20.575 3.019 3.7-1.268 8.57-5.413 13.28-1.898 2.157-5.432 6.173-5.112 7.332.238.861.541.906.655.924 1.193.195 4.27-1.651 7.103-6.134 3.324-5.254 8.368-5.089 11.284-4.551 3.379-7.069 5.186-14.487 4.984-20.562-.131-4.084-3.629-8.441-9.13-11.374-6.314-3.365-16.031-5.045-25.746-.741 4.924.804 12.478.568 15.761-1.492a1.996 1.996 0 0 1 1.063-.307zm278.662 140.697c-.208 0-.419-.033-.628-.102l-166.381-54.97a2 2 0 1 1 1.255-3.798l166.381 54.97a2 2 0 0 1-.627 3.9zm-45.769 33.472c-.208 0-.419-.033-.628-.102l-103.793-34.291a2 2 0 1 1 1.255-3.798l103.793 34.291a2 2 0 0 1-.627 3.9zm1.694 49.155c-.208 0-.419-.033-.628-.102l-136.13-44.975a2 2 0 1 1 1.255-3.798l136.13 44.975a2.001 2.001 0 0 1-.628 3.9zM111.15 630.723a2 2 0 0 1-1.899-2.628l71.762-217.207a2 2 0 1 1 3.797 1.254l-71.762 217.207a2.001 2.001 0 0 1-1.899 1.374zm450.863-110.085c-.208 0-.419-.033-.628-.102L238.771 413.95a2 2 0 1 1 1.255-3.798L562.64 516.738a2 2 0 0 1-.627 3.9zM412.916 506.46c-.208 0-.419-.033-.628-.102l-183.966-60.779a2 2 0 1 1 1.255-3.798l183.966 60.779a2.001 2.001 0 0 1-.628 3.9zm105.988 141.461c-.208 0-.419-.033-.628-.102L196.615 541.548a2 2 0 0 1 1.255-3.798l321.661 106.271a2 2 0 0 1-.628 3.9zM370.64 634.419c-.208 0-.419-.033-.628-.102l-183.966-60.779a2 2 0 1 1 1.255-3.798l183.966 60.779a2.001 2.001 0 0 1-.628 3.9zM447 695.128c-.208 0-.419-.033-.628-.102l-270.895-89.499a2 2 0 0 1 1.255-3.798l270.895 89.499a2.001 2.001 0 0 1-.628 3.9zm-10.714-109.985c-.208 0-.419-.033-.628-.102l-228.474-75.483a2 2 0 0 1 1.255-3.798l228.474 75.483a2.001 2.001 0 0 1-.628 3.9zm-68.043 147.584c-.208 0-.419-.033-.628-.102l-211.088-69.739a2 2 0 1 1 1.255-3.798l211.088 69.739a2 2 0 0 1-.627 3.9zm69.975 56.688c-.208 0-.419-.033-.628-.102l-291.062-96.162a2 2 0 1 1 1.255-3.798l291.062 96.162a2.001 2.001 0 0 1-.628 3.9z"/></g><path d="M377.386 350.334s-85.152-28.724-134.13-45.053a5259.285 5259.285 0 0 0-17.938-5.961c-49.653-148.615 40.893-221.03 69.048-239.342.183 1.737.89 3.517 2.005 5.2a.267.267 0 0 0 .064.097c.043.075.107.161.161.247 3.849 5.479 12.03 9.703 20.125 7.066-15.804 22.558-30.278 46.297-35.232 78.301-4.514 29.174-3.056 58.252 14.099 80.048v.021c-14.85 8.192-18.323 32.895-6.068 45.836 15.547 16.415 43.52 16.415 59.409-2.627 20.682 20.489 33.206 51.314 28.456 76.168z" fill="#fff"/><path d="M246.43 120.04c-1.93 9.853 5.769 19.76 3.646 29.571-2.402 11.097-15.547 15.954-21.98 25.293-5.94 8.631-5.49 19.975-4.803 30.428l2.187 33.345c.536 8.138 1.072 16.297 2.638 24.296 2.895 14.731 9.199 28.509 15.139 42.308a5259.285 5259.285 0 0 0-17.938-5.961c-49.653-148.615 40.893-221.03 69.048-239.342.183 1.737.89 3.517 2.005 5.2-13.273 13.252-26.547 26.494-39.82 39.746-4.364 4.353-8.931 9.071-10.122 15.118z" fill="#03045E"/><path d="M296.597 65.52a5.62 5.62 0 0 1-.943.59l.783-.836c.043.075.107.161.161.247z" fill="#03045E"/><path d="M377.383 352.335c-.215 0-.431-.035-.639-.104-1.103-.373-110.82-37.382-152.055-51.01a2 2 0 0 1-1.269-1.266c-49.971-149.567 40.834-222.777 69.855-241.653a1.99 1.99 0 0 1 1.954-.127 1.997 1.997 0 0 1 1.126 1.602c.312 3.066 2.811 6.545 6.366 8.86 4.165 2.713 9.042 3.458 13.38 2.049a1.998 1.998 0 0 1 2.257 3.049c-14.224 20.305-29.825 44.71-34.893 77.46-5.317 34.361-.838 60.041 13.694 78.506a2 2 0 0 1 .428 1.237c0 .729-.396 1.421-1.034 1.772-6.255 3.451-10.775 10.56-12.09 19.017-1.407 9.047 1.026 17.904 6.508 23.693 7.155 7.554 17.401 11.672 28.116 11.357 11.069-.348 21.121-5.281 28.306-13.891.359-.43.882-.69 1.441-.717a2.046 2.046 0 0 1 1.502.577c22.084 21.879 33.743 53.21 29.012 77.963a2 2 0 0 1-1.964 1.625zm-150.486-54.598c38.607 12.771 133.182 44.652 148.901 49.952 3.208-22.265-7.545-50.657-26.784-70.587-7.803 8.477-18.304 13.312-29.803 13.673-11.853.352-23.206-4.222-31.146-12.605-6.327-6.681-9.152-16.796-7.556-27.058 1.367-8.792 5.85-16.358 12.162-20.7-14.188-19.229-18.492-45.376-13.161-79.829 4.874-31.496 19.14-55.322 32.837-75.211-4.037.147-8.158-1.005-11.811-3.384-3.521-2.293-6.179-5.483-7.428-8.776-30.548 20.675-113.315 92.143-66.212 234.525z" fill="#1a1a1a"/><circle cx="188.31" cy="395.172" fill="#03045E" r="17.211"/><path d="M188.295 414.385c-1.993 0-4.018-.313-6.012-.971-10.059-3.324-15.538-14.211-12.215-24.269s14.209-15.534 24.268-12.216c10.058 3.324 15.538 14.211 12.215 24.269-2.664 8.065-10.192 13.187-18.256 13.187zm.027-34.426c-6.385 0-12.345 4.055-14.456 10.44-2.631 7.965 1.708 16.585 9.672 19.216 7.964 2.63 16.584-1.708 19.215-9.671 2.631-7.965-1.708-16.585-9.672-19.216a15.163 15.163 0 0 0-4.76-.77z" fill="#1a1a1a"/><circle cx="156.723" cy="490.78" fill="#03045E" r="17.211"/><path d="M156.708 509.993a19.15 19.15 0 0 1-6.012-.971c-10.059-3.324-15.538-14.211-12.215-24.269 3.323-10.059 14.21-15.538 24.268-12.216 10.059 3.324 15.538 14.211 12.215 24.269-2.664 8.065-10.192 13.187-18.256 13.187zm.027-34.426c-6.385 0-12.345 4.055-14.456 10.44-2.631 7.965 1.708 16.585 9.672 19.216 7.965 2.634 16.584-1.708 19.216-9.671 2.631-7.965-1.708-16.585-9.672-19.216a15.163 15.163 0 0 0-4.76-.77z" fill="#1a1a1a"/><circle cx="106.066" cy="644.108" fill="#03045E" r="17.211"/><path d="M106.051 663.321c-1.993 0-4.018-.313-6.011-.971-10.059-3.324-15.538-14.211-12.215-24.269 3.323-10.059 14.208-15.538 24.268-12.216 10.058 3.324 15.538 14.211 12.215 24.269-2.664 8.065-10.192 13.187-18.257 13.187zm.027-34.426c-6.385 0-12.345 4.055-14.455 10.44-2.631 7.965 1.708 16.585 9.672 19.216 7.964 2.634 16.584-1.708 19.216-9.671 2.631-7.965-1.708-16.585-9.672-19.216a15.163 15.163 0 0 0-4.76-.77zm221.826-357.616a2 2 0 0 1-1.552-3.259l5.863-7.228a2 2 0 1 1 3.106 2.519l-5.863 7.228c-.395.487-.972.74-1.554.74zm-28.387-24.334a2 2 0 0 1-1.261-3.553l5.321-4.313a2 2 0 0 1 2.519 3.107l-5.321 4.313c-.37.3-.816.446-1.258.446z" fill="#1a1a1a"/></svg></g><g transform="translate(528.0 489.0) rotate(0.0 91.0 91.5) scale(0.9950357556804514 0.997286073962659)"><svg width="182.908" height="183.498" viewBox="0 0 182.908 183.498"><path d="M165.042 45.194 2 2l41.912 165.291c.698 3.628 2.185 6.7 4.532 9.068 14.188 14.324 54.223-2.325 89.421-37.188s52.23-74.737 38.042-89.061c-2.734-2.76-6.431-4.366-10.865-4.917z" fill="#03045E"/><path d="m2 2 60.042 148.588a89.488 89.488 0 0 0 8.099 15.488l8.289 12.664s14.401-2.806 32.865-16.438c-4.889-5.974-10.241-12.717-13.203-16.467a89.724 89.724 0 0 1-4.275-5.889z" fill="#fff"/><path d="M63.042 183.521c-6.657 0-12.156-1.854-16.02-5.754-2.567-2.592-4.271-5.97-5.063-10.039L.061 2.491A2 2 0 0 1 2.512.066l162.914 43.16c4.929.639 8.933 2.48 11.902 5.478 7.472 7.544 7.443 21.402-.083 39.021-7.284 17.054-20.77 35.829-37.973 52.868-27.245 26.984-56.708 42.927-76.23 42.928zM4.774 4.803 45.85 166.8c.01.037.018.075.025.113.635 3.304 1.978 6.008 3.989 8.039 3.045 3.074 7.511 4.525 12.99 4.525 18.207.003 47.639-16.012 73.602-41.727 16.844-16.684 30.023-35.008 37.109-51.598 6.745-15.791 7.081-28.416.92-34.636-2.35-2.372-5.61-3.832-9.691-4.34a1.998 1.998 0 0 1-.265-.051z" fill="#1a1a1a"/></svg></g><g transform="translate(70.0 680.0) rotate(0.0 291.0 282.5) scale(0.9992874496707674 0.9994516283101308)"><svg width="582.415" height="565.31" viewBox="0 0 582.415 565.31"><path d="M580.413 338.824 380.817 563.307 2.001 226.482l3.582-4.027L201.598 1.999l175.729 156.255z" fill="#fff"/><path d="M377.327 158.254c-55.332-27.167-105.762-64.333-147.849-109.367-7.073-7.569-15.196-15.968-25.558-16.012-14.405-.06-23.034 15.244-30.785 27.39-11.557 18.134-27.418 33.054-43.111 47.766-32.308 30.279-64.601 60.565-96.905 90.854-8.096 7.592-17.419 18.09-27.535 23.57L201.598 1.999z" fill="#03045E"/><g fill="#1a1a1a"><path d="M380.813 565.309c-.473 0-.947-.167-1.328-.505L.671 227.977a2 2 0 0 1-.166-2.824L200.107.671a1.998 1.998 0 0 1 1.377-.667c.53-.041 1.05.149 1.446.502l378.814 336.828a2 2 0 0 1 .166 2.823L382.308 564.638a1.996 1.996 0 0 1-1.495.671zM4.824 226.316l375.824 334.17 196.944-221.492L201.767 4.823z"/><path d="M358.919 302.495 205.447 339.7c-5.018 1.216-6.603 7.569-2.744 11l151.448 134.662c3.859 3.431 9.983 1.114 10.604-4.012l19.003-156.77c1.699-14.014-11.12-25.411-24.839-22.086z"/><path d="M358.395 488.983a8.38 8.38 0 0 1-5.573-2.125L201.374 352.195c-2.343-2.083-3.327-5.268-2.568-8.31s3.123-5.391 6.17-6.129l153.472-37.205c7.185-1.746 14.476.075 20.001 4.99 5.525 4.913 8.184 11.939 7.294 19.279L366.74 481.591a8.376 8.376 0 0 1-5.365 6.845 8.424 8.424 0 0 1-2.98.547zm.996-184.545-153.472 37.205a4.33 4.33 0 0 0-3.231 3.211 4.332 4.332 0 0 0 1.345 4.353l151.448 134.662a4.336 4.336 0 0 0 4.48.826 4.331 4.331 0 0 0 2.81-3.584l19.003-156.771c.73-6.019-1.45-11.781-5.981-15.81s-10.509-5.519-16.401-4.093z"/></g><circle cx="385.785" cy="243.126" fill="#03045E" r="18.704"/><path d="M385.774 263.82a20.619 20.619 0 0 1-13.747-5.223 20.567 20.567 0 0 1-6.911-14.26 20.567 20.567 0 0 1 5.196-14.97c7.585-8.532 20.698-9.302 29.23-1.716a20.567 20.567 0 0 1 6.911 14.261 20.57 20.57 0 0 1-5.196 14.971c-4.085 4.594-9.772 6.937-15.484 6.937zm.021-37.392c-4.608 0-9.197 1.891-12.493 5.598-6.12 6.883-5.5 17.462 1.383 23.583 6.884 6.118 17.462 5.5 23.583-1.384a16.59 16.59 0 0 0 4.192-12.078 16.596 16.596 0 0 0-5.576-11.506 16.64 16.64 0 0 0-11.09-4.213z" fill="#1a1a1a"/><path d="M286.706 160.571 87.352 226.724c-7.794 2.586-9.865 12.639-3.728 18.096L257.96 399.833c6.136 5.456 15.878 2.224 17.536-5.819l42.387-205.722c3.742-18.16-13.578-33.56-31.176-27.72z" fill="#03045E"/><path d="M264.998 404.544c-3.039 0-5.995-1.106-8.367-3.217L82.295 246.314c-3.422-3.042-4.914-7.537-3.99-12.022.924-4.484 4.071-8.023 8.417-9.466l199.354-66.153c8.95-2.969 18.502-1.001 25.549 5.265 7.047 6.267 10.118 15.521 8.215 24.758l-42.387 205.723c-.924 4.485-4.071 8.024-8.417 9.467a12.822 12.822 0 0 1-4.039.659zm22.339-242.074L87.982 228.623c-2.974.986-5.127 3.408-5.759 6.477s.388 6.145 2.729 8.226L259.288 398.34c2.342 2.082 5.515 2.735 8.488 1.749 2.974-.986 5.127-3.408 5.76-6.477l42.387-205.723c1.611-7.82-.989-15.656-6.956-20.962-5.967-5.307-14.053-6.974-21.632-4.457z" fill="#1a1a1a"/></svg></g><g transform="translate(287.0 473.0) rotate(0.0 194.5 365.0) scale(0.9980782503611298 0.9988725055553732)"><svg width="389.749" height="730.824" viewBox="0 0 389.749 730.824"><path d="M69.204 138.75c-20.601-3.359-44.335-32.53-39.152-62.162C36.639 38.925 25.122 11.525 2 2c63.758 7.605 116.235 81.343 93.128 123.809-1.359 24.308-16.78 19.319-25.923 12.941z" fill="#1a1a1a"/><path d="M82.912 145.988c-5.771 0-11.563-3.358-14.479-5.342-10.415-1.869-21.431-9.755-29.555-21.183-9.362-13.169-13.297-28.922-10.796-43.221 6.266-35.823-3.769-62.887-26.844-72.393A2 2 0 0 1 .064 1.496C.317.528 1.249-.087 2.237.013c41.65 4.969 75.427 36.486 90.426 65.517 11.526 22.311 13.133 44.452 4.435 60.837-.619 9.71-3.549 15.904-8.712 18.417-1.758.855-3.615 1.204-5.474 1.204zM13.001 6.023c7.013 5.357 12.465 12.805 16.031 21.995 5.206 13.419 6.24 30.333 2.99 48.914-2.318 13.253 1.369 27.91 10.116 40.214 7.521 10.579 18.016 18.102 27.388 19.63.296.048.577.162.823.333 2.378 1.659 10.58 6.854 16.287 4.078 3.84-1.868 6.025-7.08 6.495-15.49.017-.296.098-.584.24-.845 8.293-15.239 6.739-36.192-4.262-57.486C75.974 41.941 47.993 14.551 13.001 6.023z" fill="#1a1a1a"/><path d="M95.124 125.812a5.556 5.556 0 0 1 7.306 2.204l46.675 81.483 27.853 48.627a162.1 162.1 0 0 1 6.308 12.178L379.411 691.95l6.887 14.794c3.548 7.62.378 16.689-7.147 20.441-.136.063-.268.136-.394.195-7.446 3.466-16.343.512-20.231-6.772l-184.891-346.11-41.924-78.467a162.289 162.289 0 0 1-5.939-12.35l-22.123-51.484-37.071-86.284a5.548 5.548 0 0 1 2.627-7.16z" fill="#03045E"/><path d="M173.635 374.498a3317.81 3317.81 0 0 0 8.057 6.053c14.541 10.912 29.367 22.128 39.4 37.279 15.695 23.679 17.785 53.952 31.003 79.092 16.156 30.715 47.432 51.126 64.421 81.37 8.998 15.999 13.574 34.01 19.115 51.5 5.555 17.496 12.449 35.125 24.983 48.532 5.287 5.64 11.711 10.396 18.797 13.625l6.887 14.794c3.548 7.62.378 16.689-7.147 20.441-.136.063-.268.136-.394.195-7.446 3.466-16.343.512-20.231-6.772z" fill="#fff"/><path d="M372.167 730.849c-6.251 0-12.243-3.372-15.408-9.297L129.946 296.977a168.38 168.38 0 0 1-6.014-12.509L64.743 146.705a7.563 7.563 0 0 1 3.568-9.745l25.924-12.941a7.563 7.563 0 0 1 9.934 3.006l74.524 130.104a163.768 163.768 0 0 1 6.384 12.327L388.11 705.899c4.033 8.669.491 18.805-8.063 23.075a17.612 17.612 0 0 1-7.88 1.874zM97.605 127.223c-.535 0-1.076.121-1.585.374l-25.923 12.941a3.561 3.561 0 0 0-1.68 4.588l59.189 137.762a164.385 164.385 0 0 0 5.869 12.206l226.811 424.573c3.477 6.509 11.371 9.023 17.974 5.729a13.459 13.459 0 0 0 6.223-17.81L181.449 271.142v-.002a159.814 159.814 0 0 0-6.228-12.023l-74.524-130.104a3.56 3.56 0 0 0-3.092-1.79z" fill="#1a1a1a"/><path d="m149.103 209.503-45.453 22.691-37.07-86.277a5.558 5.558 0 0 1 2.624-7.167l25.923-12.941a5.56 5.56 0 0 1 7.306 2.21z" fill="#fff"/><path d="M103.65 234.193a1.998 1.998 0 0 1-1.838-1.211l-37.07-86.276a7.563 7.563 0 0 1 3.568-9.745l25.924-12.941a7.563 7.563 0 0 1 9.934 3.006l46.67 81.483a2 2 0 0 1-.842 2.783l-45.453 22.69c-.28.141-.586.211-.893.211zm-6.044-106.97c-.535 0-1.076.121-1.585.374l-25.923 12.941a3.561 3.561 0 0 0-1.68 4.589l36.233 84.33 41.663-20.799-45.617-79.646a3.56 3.56 0 0 0-3.092-1.79z" fill="#1a1a1a"/><path d="m84.079 186.644 40.243-20.09" fill="#fff"/><path d="M84.081 188.644a2 2 0 0 1-.895-3.789l40.242-20.09a2 2 0 0 1 1.787 3.579l-40.242 20.09a1.983 1.983 0 0 1-.892.211z" fill="#1a1a1a"/></svg></g><g transform="translate(586.0 723.0) rotate(0.0 141.0 170.0) scale(0.9971887763220707 0.9993298611519333)"><svg width="282.795" height="340.228" viewBox="0 0 282.795 340.228"><g fill="#1a1a1a"><path d="m265.875 108.383-71.648 13.877-70.924-47.907-47.908 70.923L2 159.492l14.92 72.352 157.492 106.384 106.383-157.492z"/><path d="M174.412 340.227c-.396 0-.786-.118-1.119-.343L15.801 233.501a1.996 1.996 0 0 1-.839-1.253L.041 159.895a2 2 0 0 1 1.579-2.368l72.582-14.057 47.444-70.237a2.007 2.007 0 0 1 1.277-.845c.521-.1 1.06.01 1.5.307l70.237 47.444 70.835-13.72a2.004 2.004 0 0 1 2.339 1.56l14.92 72.353c.109.528 0 1.077-.302 1.523L176.069 339.346a2.007 2.007 0 0 1-1.657.881zM18.714 230.642l155.16 104.809 104.792-155.136-14.351-69.593-69.708 13.502a2.017 2.017 0 0 1-1.5-.307l-69.266-46.789-46.788 69.267a2.007 2.007 0 0 1-1.277.845L4.368 161.07z"/><path d="m159.492 265.875 14.92 72.353 106.383-157.492-14.92-72.353z"/><path d="M174.412 340.227a2.003 2.003 0 0 1-1.959-1.596l-14.92-72.353c-.109-.528 0-1.077.302-1.523l106.383-157.491a2.01 2.01 0 0 1 2.045-.843 2.003 2.003 0 0 1 1.571 1.558l14.92 72.353c.109.528 0 1.077-.302 1.523L176.069 339.346a1.998 1.998 0 0 1-1.657.881zm-12.792-73.932 13.792 66.878 103.254-152.858-13.791-66.878-103.254 152.858z"/></g><path d="M265.873 108.383 159.492 265.875 1.999 159.494l17.445-25.829L108.381 2.001 244.28 93.79z" fill="#03045E"/><path d="M244.28 93.79c-23.073 4.192-49.653-12.244-71.954-2.734-9.382 4.01-17.433 12.469-27.641 12.287-9.006-.161-17.198-7.259-26.108-5.95-9.017 1.319-14.549 10.582-17.337 19.256-2.798 8.685-4.492 18.302-10.957 24.725-8.524 8.459-22.452 8.32-33.924 4.782-11.473-3.528-22.087-9.832-33.881-12.062a35.323 35.323 0 0 0-3.034-.429L108.381 2.001z" fill="#fff"/><path d="M159.492 267.875c-.396 0-.786-.118-1.12-.343L.881 161.149a1.999 1.999 0 0 1-.538-2.776L106.726.881a2.007 2.007 0 0 1 1.277-.845 2.005 2.005 0 0 1 1.5.307l157.492 106.383a2 2 0 0 1 .538 2.776L161.15 266.994a2.007 2.007 0 0 1-1.657.881zM4.777 158.954l154.177 104.145 104.144-154.178L108.921 4.776z" fill="#1a1a1a"/></svg></g><g transform="translate(995.0 797.0) rotate(0.0 75.5 75.5) scale(0.9937479434024351 0.9937479434024351)"><svg width="151.95" height="151.95" viewBox="0 0 151.95 151.95"><path d="M2.352 68.804A74.855 74.855 0 0 0 2 75.975c0 40.855 33.12 73.975 73.975 73.975s73.975-33.12 73.975-73.975c0-29.351-17.094-54.708-41.868-66.662C98.371 4.627 87.48 2 75.975 2 37.54 2 5.959 31.315 2.352 68.804z" fill="#03045E"/><path d="M75.975 151.95C34.082 151.95 0 117.868 0 75.975c0-2.395.122-4.873.361-7.362 1.8-18.707 10.463-36.019 24.393-48.746C38.776 7.055 56.967 0 75.975 0c11.55 0 22.644 2.527 32.976 7.511 26.121 12.604 42.999 39.478 42.999 68.464 0 41.893-34.082 75.975-75.975 75.975zm0-147.95C38.703 4 7.908 31.942 4.343 68.996A72.977 72.977 0 0 0 4 75.975c0 39.687 32.288 71.975 71.975 71.975s71.975-32.288 71.975-71.975c0-27.461-15.99-52.92-40.737-64.861C97.428 6.393 86.919 4 75.975 4z" fill="#1a1a1a"/><circle cx="67.451" cy="33.408" fill="#fff" r="19.483"/></svg></g><g transform="translate(291.0 829.0) rotate(0.0 525.5 272.0) scale(1.012378762586103 1.0107447367883216)"><svg width="1038.149" height="538.217" viewBox="0 0 1038.149 538.217"><path d="m1034.714 38.184-1.617 4.84-153.136 458.531c-6.911 20.702-26.292 34.662-48.115 34.662H33.734c-22.319 0-37.642-22.435-29.537-43.232l50.958-130.649 97.994-251.267c7.598-19.466 26.356-32.294 47.258-32.294h588.334l61.536-59.317A62.33 62.33 0 0 1 893.552 2h115.103c18.758 0 31.999 18.388 26.06 36.184z" fill="#03045E"/><path d="M603.923 78.775c-39.65 25.827-90.797 23.83-138.183 27.772-31.153 2.589-143.107 18.599-180.898 39.713-21.072 11.773-38.625 29.663-60.965 38.804-20.744 8.507-45.451 9.469-61.958 24.633-25.415 23.344-17.447 66.09-34.862 95.87-13.59 23.238-40.137 34.831-62.466 49.858a138.314 138.314 0 0 0-9.437 6.911l97.995-251.267c7.598-19.466 26.356-32.294 47.258-32.294z" fill="#fff"/><path d="M831.847 538.217H33.734A33.68 33.68 0 0 1 5.91 523.535a33.703 33.703 0 0 1-3.576-31.276l148.951-381.916c7.96-20.393 27.241-33.568 49.122-33.568h587.527l60.955-58.756C860.935 6.399 876.796 0 893.551 0h115.103c9.589 0 18.304 4.463 23.91 12.245 5.609 7.785 7.084 17.47 4.047 26.571S881.858 502.189 881.858 502.189a52.66 52.66 0 0 1-50.012 36.027zM200.407 80.774c-20.221 0-38.039 12.177-45.395 31.022L6.06 493.712c-3.621 9.291-2.472 19.338 3.152 27.566 5.62 8.223 14.558 12.938 24.522 12.938h798.113a48.667 48.667 0 0 0 46.218-33.295L1032.817 37.55c2.625-7.866 1.35-16.237-3.498-22.967C1024.473 7.857 1016.941 4 1008.654 4H893.551c-15.714 0-30.589 6.001-41.886 16.897l-61.536 59.317c-.373.358-.87.56-1.388.56z" fill="#1a1a1a"/><path d="M624.934 260.179c-27.078-17.601 11.283-60.024-64.537-60.024-97.483 0-205.195 65.59-205.195 128.774 0 59.573 76.722 90.864 166.082 90.864 83.943 0 178.116-54.007 178.116-102.748s-47.387-39.264-74.466-56.865zm-72.961-.451c-14.622 0-26.477-7.678-26.477-17.15s11.854-17.15 26.477-17.15 26.477 7.679 26.477 17.15-11.854 17.15-26.477 17.15z" fill="#03045E"/><path d="M521.284 421.792c-45.866 0-87.577-8.276-117.449-23.306-33.124-16.664-50.632-40.717-50.632-69.558 0-30.613 24.416-63.337 66.986-89.78 41.325-25.669 93.74-40.994 140.209-40.994 22.449 0 36.692 3.57 44.824 11.236 7.324 6.905 8.417 15.933 9.472 24.662 1.154 9.535 2.243 18.542 11.331 24.449 8.25 5.362 18.743 8.212 28.89 10.969 22.854 6.207 46.486 12.625 46.486 47.573 0 23.934-21.352 49.952-58.582 71.386-36.288 20.891-81.721 33.362-121.535 33.362zm39.114-219.638c-45.755 0-97.38 15.1-138.098 40.393-41.37 25.697-65.097 57.182-65.097 86.382 0 61.386 82.409 88.863 164.082 88.863 39.144 0 83.831-12.272 119.539-32.829 35.427-20.396 56.577-45.785 56.577-67.919 0-31.89-21.146-37.633-43.534-43.714-10.445-2.837-21.246-5.771-30.022-11.475-10.654-6.925-11.908-17.295-13.121-27.322-2.014-16.651-3.917-32.379-50.325-32.379zm-8.425 59.573c-15.702 0-28.477-8.591-28.477-19.149s12.775-19.15 28.477-19.15 28.477 8.591 28.477 19.15-12.775 19.149-28.477 19.149zm0-34.3c-13.497 0-24.477 6.797-24.477 15.15s10.98 15.149 24.477 15.149 24.477-6.796 24.477-15.149-10.98-15.15-24.477-15.15z" fill="#1a1a1a"/><path d="M401.929 340.994c-4.504-6.296-3.271-15.746 2.152-21.271 5.422-5.525 14.22-7.076 21.537-4.549 7.317 2.526 13.068 8.713 15.946 15.899s3.064 15.266 1.476 22.842c-1.275 6.08-3.789 12.106-8.336 16.339s-11.4 6.331-17.199 4.101c-7.963-3.061-7.815-9.38-5.71-15.76 2.786-8.445-5.497-11.495-9.865-17.601z" fill="#999"/><path d="M422.46 377.24c-1.965 0-3.888-.332-5.674-1.018-7.604-2.923-9.923-9.064-6.892-18.254 1.481-4.489-.73-6.849-4.766-10.632-1.674-1.57-3.405-3.193-4.826-5.18-4.974-6.953-3.942-17.423 2.351-23.835 5.784-5.894 15.276-7.919 23.617-5.038 7.501 2.59 13.913 8.962 17.15 17.046 2.837 7.085 3.382 15.382 1.577 23.995-1.569 7.484-4.574 13.336-8.931 17.393-3.836 3.571-8.841 5.521-13.606 5.522zm-3.997-61.261c-4.917 0-9.679 1.808-12.955 5.146-4.891 4.982-5.766 13.374-1.952 18.705 1.191 1.666 2.776 3.151 4.308 4.589 3.835 3.596 8.182 7.671 5.829 14.804-2.397 7.265-1.085 11.108 4.528 13.266 4.719 1.816 10.794.328 15.119-3.698 3.74-3.482 6.345-8.625 7.741-15.285 1.643-7.839 1.168-15.338-1.375-21.688-2.812-7.021-8.323-12.535-14.742-14.751a19.945 19.945 0 0 0-6.502-1.086z" fill="#1a1a1a"/><path d="M494.172 389.5c-4.348.708-9.427-1.008-11.18-5.05-1.946-4.485.785-9.512 3.421-13.63l11.855-18.517c3.013-4.706 6.224-9.601 11.116-12.3 7.41-4.087 17.164-1.878 23.557 3.667s9.873 13.781 11.666 22.051c1.03 4.749 1.557 9.791.02 14.401-1.536 4.61-5.579 8.66-10.432 8.909-3.387.174-6.592-1.449-9.493-3.206s-5.786-3.734-9.112-4.4c-7.767-1.556-14.097 6.881-21.419 8.074z" fill="#ccc"/><path d="M492.246 391.653c-4.422 0-9.184-2.015-11.089-6.407-2.566-5.916 1.579-12.392 3.572-15.504l11.855-18.517c2.842-4.439 6.379-9.963 11.834-12.973 7.676-4.237 18.3-2.628 25.834 3.907 5.96 5.17 10.102 12.955 12.31 23.139.865 3.991 1.803 9.936-.037 15.456-1.628 4.886-6.04 9.957-12.227 10.274-3.955.204-7.593-1.651-10.631-3.491l-1.113-.682c-2.469-1.521-4.801-2.957-7.355-3.469-3.742-.744-7.323 1.444-11.115 3.768-3.014 1.847-6.131 3.756-9.589 4.318-.728.119-1.482.18-2.247.18zm25.713-51.766c-2.711 0-5.328.609-7.61 1.867-4.565 2.52-7.664 7.358-10.397 11.627l-11.855 18.517c-2.591 4.048-4.781 8.274-3.271 11.756 1.406 3.241 5.698 4.416 9.023 3.872 2.682-.438 5.335-2.063 8.143-3.782 4.282-2.623 8.71-5.338 13.99-4.278 3.257.652 6.008 2.346 8.667 3.984l1.088.666c2.646 1.604 5.485 3.067 8.354 2.919 4.28-.22 7.478-4.064 8.637-7.544 1.529-4.589.688-9.813-.077-13.345-2.021-9.32-5.729-16.374-11.022-20.965-3.991-3.461-8.971-5.294-13.671-5.294z" fill="#1a1a1a"/><path d="M601.42 365.265c-6.828 2.167-15.571.119-18.612-6.368-2.266-4.833-.841-10.506.617-15.641 1.418-4.99 2.836-9.983 4.545-14.881 1.525-4.372 3.369-8.799 6.69-12.025s8.469-4.976 12.712-3.124c4.598 2.007 6.857 7.461 11.322 9.748 5.7 2.919 12.979-.228 18.88 2.259 4.958 2.09 7.654 8.029 6.795 13.34s-4.761 9.815-9.529 12.307c-5.601 2.928-11.703 1.064-17.006 3.115-6.018 2.328-9.681 9.131-16.414 11.268z" fill="#fff"/><g fill="#1a1a1a"><path d="M595.917 368.098c-6.074 0-12.242-2.64-14.92-8.352-2.7-5.758-.772-12.545.504-17.036 1.401-4.933 2.85-10.033 4.58-14.993 1.595-4.572 3.569-9.288 7.184-12.801 3.546-3.444 9.529-5.869 14.906-3.522 2.784 1.216 4.719 3.384 6.589 5.479 1.556 1.744 3.026 3.391 4.845 4.322 2.492 1.275 5.528 1.175 8.742 1.061 3.321-.116 6.754-.234 10.002 1.136 5.604 2.362 9.04 9.026 7.993 15.502-.911 5.631-4.865 10.775-10.577 13.761-3.464 1.811-6.934 1.985-10.29 2.155-2.484.125-4.83.243-6.921 1.053-2.485.962-4.616 2.885-6.872 4.921-2.792 2.52-5.678 5.125-9.658 6.389a20.323 20.323 0 0 1-6.108.926zm7.742-53.628c-2.86 0-5.746 1.508-7.606 3.315-3.019 2.934-4.762 7.141-6.195 11.249-1.691 4.849-3.124 9.892-4.509 14.77-1.473 5.186-2.637 10.177-.73 14.245 2.634 5.617 10.459 7.129 16.196 5.311 3.155-1.001 5.6-3.209 8.189-5.545 2.426-2.19 4.935-4.455 8.109-5.683 2.691-1.041 5.473-1.182 8.163-1.317 3.06-.154 5.951-.301 8.638-1.705 4.532-2.368 7.781-6.527 8.481-10.854.749-4.629-1.71-9.539-5.598-11.178-2.437-1.027-5.29-.928-8.311-.824-3.583.125-7.288.253-10.704-1.497-2.483-1.272-4.274-3.279-6.005-5.219-1.657-1.857-3.223-3.612-5.206-4.478a7.226 7.226 0 0 0-2.912-.59z"/><path d="M1033.097 43.024 879.961 501.555c-6.911 20.702-26.292 34.662-48.115 34.662H216.163c33.986-11.17 78.454-26.292 148.856-24.063 38.53 1.216 78.55 7.725 114.617-5.897 34.926-13.199 63.924-44.585 101.26-45.145 43.613-.655 86.993 41.594 125.66 21.41 25.141-13.114 31.682-45.694 33.436-73.995 5.199-84.182 23.492-91.326 93.693-101.798 24.665-3.688 52.426-13.39 60.753-36.892 13.696-38.667-37.156-101.83 138.658-226.814z"/><path d="M831.847 538.217H216.163a2 2 0 0 1-.625-3.901l1.958-.644c32.992-10.853 78.176-25.707 147.585-23.518 8.018.253 16.228.742 24.168 1.215 30.23 1.801 61.49 3.665 89.679-6.983 13.017-4.919 25.452-12.555 37.477-19.938 20-12.28 40.681-24.979 64.459-25.335 18.516-.244 36.872 6.965 54.639 13.969 24.849 9.797 48.319 19.049 70.125 7.668 19.388-10.114 29.975-33.778 32.366-72.347 5.337-86.407 25.674-93.251 95.394-103.652 22.427-3.354 50.896-12.249 59.163-35.581 2.898-8.183 2.784-17.751 2.652-28.83-.479-40.177-1.202-100.891 136.732-198.945a2 2 0 0 1 3.056 2.263L881.855 502.189a52.66 52.66 0 0 1-50.012 36.027zm-603.14-4h603.14a48.667 48.667 0 0 0 46.218-33.295l151.18-452.678c-131.208 94.729-130.502 153.193-130.04 192.048.136 11.461.254 21.359-2.882 30.214-8.93 25.204-38.832 34.686-62.343 38.202-68.66 10.242-86.831 16.371-91.993 99.942-2.485 40.086-13.772 64.829-34.507 75.646-23.424 12.229-47.72 2.649-73.443-7.492-17.405-6.862-35.408-13.965-53.112-13.69-22.681.34-41.987 12.193-62.426 24.744-12.184 7.481-24.783 15.218-38.156 20.271-28.987 10.949-60.68 9.063-91.33 7.234-7.913-.472-16.095-.959-24.057-1.21-62.256-1.972-103.386 9.451-136.25 20.063z"/></g></svg></g></svg>